<?xml version="1.0" encoding="UTF-8" standalone="no"?>
<!-- Created with Inkscape (http://www.inkscape.org/) -->
<svg
   xmlns:dc="http://purl.org/dc/elements/1.1/"
   xmlns:cc="http://creativecommons.org/ns#"
   xmlns:rdf="http://www.w3.org/1999/02/22-rdf-syntax-ns#"
   xmlns:svg="http://www.w3.org/2000/svg"
   xmlns="http://www.w3.org/2000/svg"
   xmlns:sodipodi="http://sodipodi.sourceforge.net/DTD/sodipodi-0.dtd"
   xmlns:inkscape="http://www.inkscape.org/namespaces/inkscape"
   id="svg2"
   sodipodi:version="0.32"
   inkscape:version="0.46dev+devel"
   width="600"
   height="600"
   version="1.0"
   sodipodi:docbase="C:\Documents and Settings\Flanker\Desktop"
   sodipodi:docname="Italy-Royal-Airforce.svg"
   inkscape:output_extension="org.inkscape.output.svg.inkscape">
  <metadata
     id="metadata7">
    <rdf:RDF>
      <cc:Work
         rdf:about="">
        <dc:format>image/svg+xml</dc:format>
        <dc:type
           rdf:resource="http://purl.org/dc/dcmitype/StillImage" />
      </cc:Work>
    </rdf:RDF>
  </metadata>
  <defs
     id="defs5" />
  <sodipodi:namedview
     inkscape:window-height="1003"
     inkscape:window-width="1280"
     inkscape:pageshadow="2"
     inkscape:pageopacity="0.0"
     guidetolerance="10.0"
     gridtolerance="10.0"
     objecttolerance="10.0"
     borderopacity="1.0"
     bordercolor="#666666"
     pagecolor="#ffffff"
     id="base"
     inkscape:zoom="0.44833333"
     inkscape:cx="233.15815"
     inkscape:cy="93.272163"
     inkscape:window-x="0"
     inkscape:window-y="0"
     inkscape:current-layer="svg2"
     showgrid="false"
     inkscape:showpageshadow="false" />
  <path
     sodipodi:type="arc"
     style="fill:#ffffff;fill-opacity:1;fill-rule:nonzero;stroke:none;stroke-width:1.50000000000000000;stroke-linecap:round;stroke-linejoin:round;stroke-miterlimit:4;stroke-dasharray:none;stroke-dashoffset:0;stroke-opacity:1"
     id="path2943"
     sodipodi:cx="-62.453533"
     sodipodi:cy="-47.397778"
     sodipodi:rx="205.20447"
     sodipodi:ry="205.20447"
     d="M 142.75093,-47.397778 A 205.20447,205.20447 0 1 1 -267.658,-47.397778 A 205.20447,205.20447 0 1 1 142.75093,-47.397778 z"
     transform="matrix(1.3959396,0,0,1.3959396,387.18135,366.16443)" />
  <path
     style="fill:#000000;fill-opacity:1;fill-rule:evenodd;stroke:none;stroke-width:4.5;stroke-linecap:round;stroke-linejoin:miter;stroke-miterlimit:4;stroke-dasharray:none;stroke-opacity:1"
     d="M 299.99999,0 C 134.40004,0 0,134.39993 0,299.99999 C 0,465.60006 134.40004,600 299.99999,599.99999 C 465.59994,599.99999 600,465.60008 599.99999,299.99999 C 599.99999,134.39993 465.59996,0 299.99999,0 z M 299.99999,29.26829 C 448.50543,29.26829 569.03962,150.55608 569.03962,299.99999 C 569.03963,449.44391 448.50543,570.7317 299.99999,570.7317 C 151.49455,570.73168 30.960365,449.44391 30.960365,299.99999 C 30.960365,150.55608 151.49455,29.26829 299.99999,29.26829 z"
     id="path1873" />
  <g
     id="g2800"
     transform="matrix(1.4634146,0,0,1.4634146,-29.268292,-30.90035)">
    <path
       id="rect1883"
       d="M 144.5625,85.46875 L 144.5625,92.96875 L 137.0625,92.96875 L 137.0625,367.96875 L 144.5625,367.96875 L 144.5625,375.46875 L 154.5625,375.46875 L 154.5625,367.96875 L 162.0625,367.96875 L 162.0625,273 L 198.875,273 L 198.875,251.25 C 198.87499,231.26245 188.84375,220.15625 188.84375,220.15625 L 181.625,222.5 C 181.625,222.5 192.1315,255.03125 169.78125,255.03125 L 162.0625,255.03125 L 162.0625,92.96875 L 154.5625,92.96875 L 154.5625,85.46875 L 144.5625,85.46875 z"
       style="opacity:1;fill:#000000;fill-opacity:1;fill-rule:evenodd;stroke:none;stroke-width:4.5;stroke-linecap:round;stroke-linejoin:miter;stroke-miterlimit:4;stroke-dasharray:none;stroke-opacity:1" />
    <rect
       y="278.97058"
       x="166.00949"
       height="89"
       width="3"
       id="rect1907"
       style="opacity:1;fill:#000000;fill-opacity:1;fill-rule:evenodd;stroke:none;stroke-width:4.5;stroke-linecap:round;stroke-linejoin:miter;stroke-miterlimit:4;stroke-dasharray:none;stroke-opacity:1" />
  </g>
  <g
     id="g2804"
     transform="matrix(1.4634146,0,0,1.4634146,75.183599,-30.90035)">
    <path
       style="opacity:1;fill:#000000;fill-opacity:1;fill-rule:evenodd;stroke:none;stroke-width:4.5;stroke-linecap:round;stroke-linejoin:miter;stroke-miterlimit:4;stroke-dasharray:none;stroke-opacity:1"
       d="M 144.5625,85.46875 L 144.5625,92.96875 L 137.0625,92.96875 L 137.0625,367.96875 L 144.5625,367.96875 L 144.5625,375.46875 L 154.5625,375.46875 L 154.5625,367.96875 L 162.0625,367.96875 L 162.0625,273 L 198.875,273 L 198.875,251.25 C 198.87499,231.26245 188.84375,220.15625 188.84375,220.15625 L 181.625,222.5 C 181.625,222.5 192.1315,255.03125 169.78125,255.03125 L 162.0625,255.03125 L 162.0625,92.96875 L 154.5625,92.96875 L 154.5625,85.46875 L 144.5625,85.46875 z"
       id="path2806" />
    <rect
       style="opacity:1;fill:#000000;fill-opacity:1;fill-rule:evenodd;stroke:none;stroke-width:4.5;stroke-linecap:round;stroke-linejoin:miter;stroke-miterlimit:4;stroke-dasharray:none;stroke-opacity:1"
       id="rect2808"
       width="3"
       height="89"
       x="166.00949"
       y="278.97058" />
  </g>
  <g
     transform="matrix(1.4634146,0,0,1.4634146,181.2676,-30.90035)"
     id="g2810">
    <path
       id="path2812"
       d="M 144.5625,85.46875 L 144.5625,92.96875 L 137.0625,92.96875 L 137.0625,367.96875 L 144.5625,367.96875 L 144.5625,375.46875 L 154.5625,375.46875 L 154.5625,367.96875 L 162.0625,367.96875 L 162.0625,273 L 198.875,273 L 198.875,251.25 C 198.87499,231.26245 188.84375,220.15625 188.84375,220.15625 L 181.625,222.5 C 181.625,222.5 192.1315,255.03125 169.78125,255.03125 L 162.0625,255.03125 L 162.0625,92.96875 L 154.5625,92.96875 L 154.5625,85.46875 L 144.5625,85.46875 z"
       style="opacity:1;fill:#000000;fill-opacity:1;fill-rule:evenodd;stroke:none;stroke-width:4.5;stroke-linecap:round;stroke-linejoin:miter;stroke-miterlimit:4;stroke-dasharray:none;stroke-opacity:1" />
    <rect
       y="278.97058"
       x="166.00949"
       height="89"
       width="3"
       id="rect2814"
       style="opacity:1;fill:#000000;fill-opacity:1;fill-rule:evenodd;stroke:none;stroke-width:4.5;stroke-linecap:round;stroke-linejoin:miter;stroke-miterlimit:4;stroke-dasharray:none;stroke-opacity:1" />
  </g>
</svg>
